<mxfile host="app.diagrams.net" modified="2022-09-11T15:54:11.958Z" agent="5.0 (Windows NT 10.0; Win64; x64) AppleWebKit/537.36 (KHTML, like Gecko) Chrome/104.0.0.0 Safari/537.36" etag="mrXV1zHGhwXDwEtdgwVH" version="20.2.7" type="github">
  <diagram id="bHdJfHb8LMZ0ldvS8wM_" name="Page-1">
    <mxGraphModel dx="548" dy="686" grid="1" gridSize="10" guides="1" tooltips="1" connect="1" arrows="1" fold="1" page="1" pageScale="1" pageWidth="1100" pageHeight="850" math="0" shadow="0">
      <root>
        <mxCell id="0" />
        <mxCell id="1" parent="0" />
        <mxCell id="uitw4Gc2mMs4NfndXGan-1" value="&lt;h1&gt;Min Height BST&lt;/h1&gt;&lt;div&gt;&lt;ul&gt;&lt;li&gt;Write a function that takes in a non-empty sorted array of distinct integers, constructs a BST from the Integers, and returns the root of the BST&lt;/li&gt;&lt;li&gt;This function should minimize the height of the BST&lt;/li&gt;&lt;li&gt;Note that the BST class already has an insert method which you can use&lt;/li&gt;&lt;/ul&gt;&lt;div&gt;Example 1&lt;/div&gt;&lt;/div&gt;&lt;div&gt;Input: array = [1,2,5,7,10,13,14,15,22]&lt;/div&gt;&lt;div&gt;Output: See tree below&lt;/div&gt;" style="text;html=1;strokeColor=none;fillColor=none;spacing=5;spacingTop=-20;whiteSpace=wrap;overflow=hidden;rounded=0;" vertex="1" parent="1">
          <mxGeometry x="40" y="40" width="560" height="180" as="geometry" />
        </mxCell>
        <mxCell id="uitw4Gc2mMs4NfndXGan-2" value="10" style="ellipse;whiteSpace=wrap;html=1;aspect=fixed;" vertex="1" parent="1">
          <mxGeometry x="150" y="250" width="40" height="40" as="geometry" />
        </mxCell>
        <mxCell id="uitw4Gc2mMs4NfndXGan-3" value="2" style="ellipse;whiteSpace=wrap;html=1;aspect=fixed;" vertex="1" parent="1">
          <mxGeometry x="110" y="320" width="40" height="40" as="geometry" />
        </mxCell>
        <mxCell id="uitw4Gc2mMs4NfndXGan-8" value="14" style="ellipse;whiteSpace=wrap;html=1;aspect=fixed;" vertex="1" parent="1">
          <mxGeometry x="190" y="320" width="40" height="40" as="geometry" />
        </mxCell>
        <mxCell id="uitw4Gc2mMs4NfndXGan-9" value="13" style="ellipse;whiteSpace=wrap;html=1;aspect=fixed;" vertex="1" parent="1">
          <mxGeometry x="190" y="380" width="40" height="40" as="geometry" />
        </mxCell>
        <mxCell id="uitw4Gc2mMs4NfndXGan-10" value="15" style="ellipse;whiteSpace=wrap;html=1;aspect=fixed;" vertex="1" parent="1">
          <mxGeometry x="260" y="380" width="40" height="40" as="geometry" />
        </mxCell>
        <mxCell id="uitw4Gc2mMs4NfndXGan-11" value="22" style="ellipse;whiteSpace=wrap;html=1;aspect=fixed;" vertex="1" parent="1">
          <mxGeometry x="260" y="440" width="40" height="40" as="geometry" />
        </mxCell>
        <mxCell id="uitw4Gc2mMs4NfndXGan-12" value="5" style="ellipse;whiteSpace=wrap;html=1;aspect=fixed;" vertex="1" parent="1">
          <mxGeometry x="110" y="380" width="40" height="40" as="geometry" />
        </mxCell>
        <mxCell id="uitw4Gc2mMs4NfndXGan-13" value="1" style="ellipse;whiteSpace=wrap;html=1;aspect=fixed;" vertex="1" parent="1">
          <mxGeometry x="40" y="380" width="40" height="40" as="geometry" />
        </mxCell>
        <mxCell id="uitw4Gc2mMs4NfndXGan-14" value="7" style="ellipse;whiteSpace=wrap;html=1;aspect=fixed;" vertex="1" parent="1">
          <mxGeometry x="110" y="440" width="40" height="40" as="geometry" />
        </mxCell>
        <mxCell id="uitw4Gc2mMs4NfndXGan-18" value="" style="endArrow=classic;html=1;rounded=0;exitX=0.5;exitY=1;exitDx=0;exitDy=0;entryX=0.348;entryY=0.048;entryDx=0;entryDy=0;entryPerimeter=0;" edge="1" parent="1" source="uitw4Gc2mMs4NfndXGan-2" target="uitw4Gc2mMs4NfndXGan-3">
          <mxGeometry width="50" height="50" relative="1" as="geometry">
            <mxPoint x="-10" y="360" as="sourcePoint" />
            <mxPoint x="40" y="310" as="targetPoint" />
          </mxGeometry>
        </mxCell>
        <mxCell id="uitw4Gc2mMs4NfndXGan-19" value="" style="endArrow=classic;html=1;rounded=0;entryX=0.5;entryY=0;entryDx=0;entryDy=0;" edge="1" parent="1" target="uitw4Gc2mMs4NfndXGan-8">
          <mxGeometry width="50" height="50" relative="1" as="geometry">
            <mxPoint x="170" y="290" as="sourcePoint" />
            <mxPoint x="133.91999999999996" y="331.91999999999996" as="targetPoint" />
          </mxGeometry>
        </mxCell>
        <mxCell id="uitw4Gc2mMs4NfndXGan-20" value="" style="endArrow=classic;html=1;rounded=0;exitX=0.5;exitY=1;exitDx=0;exitDy=0;" edge="1" parent="1" source="uitw4Gc2mMs4NfndXGan-3" target="uitw4Gc2mMs4NfndXGan-12">
          <mxGeometry width="50" height="50" relative="1" as="geometry">
            <mxPoint x="180" y="300" as="sourcePoint" />
            <mxPoint x="220" y="330" as="targetPoint" />
          </mxGeometry>
        </mxCell>
        <mxCell id="uitw4Gc2mMs4NfndXGan-21" value="" style="endArrow=classic;html=1;rounded=0;entryX=0.5;entryY=0;entryDx=0;entryDy=0;exitX=0.5;exitY=1;exitDx=0;exitDy=0;" edge="1" parent="1" source="uitw4Gc2mMs4NfndXGan-8" target="uitw4Gc2mMs4NfndXGan-9">
          <mxGeometry width="50" height="50" relative="1" as="geometry">
            <mxPoint x="190" y="310" as="sourcePoint" />
            <mxPoint x="230" y="340" as="targetPoint" />
          </mxGeometry>
        </mxCell>
        <mxCell id="uitw4Gc2mMs4NfndXGan-22" value="" style="endArrow=classic;html=1;rounded=0;exitX=0.5;exitY=1;exitDx=0;exitDy=0;" edge="1" parent="1" source="uitw4Gc2mMs4NfndXGan-12" target="uitw4Gc2mMs4NfndXGan-14">
          <mxGeometry width="50" height="50" relative="1" as="geometry">
            <mxPoint x="200" y="320" as="sourcePoint" />
            <mxPoint x="240" y="350" as="targetPoint" />
          </mxGeometry>
        </mxCell>
        <mxCell id="uitw4Gc2mMs4NfndXGan-24" value="" style="endArrow=classic;html=1;rounded=0;entryX=0.5;entryY=0;entryDx=0;entryDy=0;exitX=0.5;exitY=1;exitDx=0;exitDy=0;" edge="1" parent="1" source="uitw4Gc2mMs4NfndXGan-8" target="uitw4Gc2mMs4NfndXGan-10">
          <mxGeometry width="50" height="50" relative="1" as="geometry">
            <mxPoint x="220" y="340" as="sourcePoint" />
            <mxPoint x="260" y="370" as="targetPoint" />
          </mxGeometry>
        </mxCell>
        <mxCell id="uitw4Gc2mMs4NfndXGan-25" value="" style="endArrow=classic;html=1;rounded=0;exitX=0.5;exitY=1;exitDx=0;exitDy=0;" edge="1" parent="1" source="uitw4Gc2mMs4NfndXGan-10" target="uitw4Gc2mMs4NfndXGan-11">
          <mxGeometry width="50" height="50" relative="1" as="geometry">
            <mxPoint x="230" y="350" as="sourcePoint" />
            <mxPoint x="270" y="380" as="targetPoint" />
          </mxGeometry>
        </mxCell>
        <mxCell id="uitw4Gc2mMs4NfndXGan-26" value="" style="endArrow=classic;html=1;rounded=0;entryX=0.5;entryY=0;entryDx=0;entryDy=0;exitX=0.5;exitY=1;exitDx=0;exitDy=0;" edge="1" parent="1" source="uitw4Gc2mMs4NfndXGan-3" target="uitw4Gc2mMs4NfndXGan-13">
          <mxGeometry width="50" height="50" relative="1" as="geometry">
            <mxPoint x="240" y="360" as="sourcePoint" />
            <mxPoint x="280" y="390" as="targetPoint" />
          </mxGeometry>
        </mxCell>
        <mxCell id="uitw4Gc2mMs4NfndXGan-27" value="&lt;h1&gt;Solution 1&lt;/h1&gt;&lt;p&gt;&lt;/p&gt;&lt;ul&gt;&lt;li&gt;Challenge here is to minimize the the height of the BST&lt;/li&gt;&lt;li&gt;Okay so how do we take the input array to get to the output array&lt;/li&gt;&lt;ul&gt;&lt;li&gt;10 is the midpoint of that array&lt;/li&gt;&lt;li&gt;2 is the midpoint of the left array if you look to the left of 10&lt;/li&gt;&lt;ul&gt;&lt;li&gt;[1,2,5,7]&lt;/li&gt;&lt;/ul&gt;&lt;li&gt;14 is the midpoint of the right array if you look to the right of 10&lt;/li&gt;&lt;ul&gt;&lt;li&gt;[10,13,14,15,22]&lt;/li&gt;&lt;/ul&gt;&lt;li&gt;1 is the midpoint of the array to the left of 2&lt;/li&gt;&lt;ul&gt;&lt;li&gt;[1]&lt;/li&gt;&lt;/ul&gt;&lt;li&gt;5 is the midpoint of the array to the right of 2&lt;/li&gt;&lt;ul&gt;&lt;li&gt;[5,7]&lt;/li&gt;&lt;/ul&gt;&lt;/ul&gt;&lt;li&gt;So this looks like a recursion problem&lt;/li&gt;&lt;li&gt;So we need to recursively look at our array, find the midpoint based on the part of the array that we&#39;re looking at and add a new node for that midpoint&lt;/li&gt;&lt;ul&gt;&lt;li&gt;Then we look to the left and then we look to the right&lt;/li&gt;&lt;/ul&gt;&lt;/ul&gt;&lt;p&gt;&lt;/p&gt;" style="text;html=1;strokeColor=none;fillColor=none;spacing=5;spacingTop=-20;whiteSpace=wrap;overflow=hidden;rounded=0;" vertex="1" parent="1">
          <mxGeometry x="40" y="550" width="510" height="300" as="geometry" />
        </mxCell>
        <mxCell id="uitw4Gc2mMs4NfndXGan-28" value="&lt;h1&gt;Solution Time and Space Complexity&lt;/h1&gt;&lt;p&gt;&lt;/p&gt;&lt;ul&gt;&lt;li&gt;Time Complexity O(NLog(N))&lt;/li&gt;&lt;li&gt;Inserting a node in a BST takes Log(N) time&lt;/li&gt;&lt;li&gt;Have to look at N nodes&amp;nbsp;&lt;br&gt;&lt;/li&gt;&lt;/ul&gt;&lt;p&gt;&lt;/p&gt;" style="text;html=1;strokeColor=none;fillColor=none;spacing=5;spacingTop=-20;whiteSpace=wrap;overflow=hidden;rounded=0;" vertex="1" parent="1">
          <mxGeometry x="50" y="930" width="510" height="300" as="geometry" />
        </mxCell>
      </root>
    </mxGraphModel>
  </diagram>
</mxfile>
